<?xml version="1.0" encoding="utf-8"?>
<!-- Generator: Adobe Illustrator 25.0.1, SVG Export Plug-In . SVG Version: 6.00 Build 0)  -->
<svg version="1.1" id="레이어_1" focusable="false"
	 xmlns="http://www.w3.org/2000/svg" xmlns:xlink="http://www.w3.org/1999/xlink" x="0px" y="0px" viewBox="0 0 616 512"
	 style="enable-background:new 0 0 616 512;" xml:space="preserve">
<style type="text/css">
	.st0{fill:#FF1800;}
</style>
<path class="st0" d="M602,118.6L537.1,15C531.3,5.7,521,0,510,0H106C95,0,84.7,5.7,78.9,15L14,118.6
	c-33.5,53.5-3.8,127.9,58.8,136.4c4.5,0.6,9.1,0.9,13.7,0.9c29.6,0,55.8-13,73.8-33.1c18,20.1,44.3,33.1,73.8,33.1
	c29.6,0,55.8-13,73.8-33.1c18,20.1,44.3,33.1,73.8,33.1c29.6,0,55.8-13,73.8-33.1c18.1,20.1,44.3,33.1,73.8,33.1
	c4.7,0,9.2-0.3,13.7-0.9C605.8,246.6,635.6,172.2,602,118.6z M529.5,288c-10,0-19.9-1.5-29.5-3.8V384H116v-99.8
	c-9.6,2.2-19.5,3.8-29.5,3.8c-6,0-12.1-0.4-18-1.2c-5.6-0.8-11.1-2.1-16.4-3.6V480c0,17.7,14.3,32,32,32h448c17.7,0,32-14.3,32-32
	V283.2c-5.4,1.6-10.8,2.9-16.4,3.6C541.6,287.6,535.6,288,529.5,288L529.5,288z"/>
</svg>
